solid OpenSCAD_Model
  facet normal -1 0 0
    outer loop
      vertex 0 70.1 14.01
      vertex 0 80 0
      vertex 0 70.1 3.81
    endloop
  endfacet
  facet normal -1 0 0
    outer loop
      vertex 0 80 0
      vertex 0 9.9 3.81
      vertex 0 70.1 3.81
    endloop
  endfacet
  facet normal -1 0 0
    outer loop
      vertex 0 -2.69422e-15 9.79717e-15
      vertex 0 9.9 14.01
      vertex 0 9.9 3.81
    endloop
  endfacet
  facet normal -1 -0 0
    outer loop
      vertex 0 9.9 14.01
      vertex 0 -2.69422e-15 9.79717e-15
      vertex 0 0 22
    endloop
  endfacet
  facet normal -1 0 0
    outer loop
      vertex 0 -2.69422e-15 9.79717e-15
      vertex 0 9.9 3.81
      vertex 0 80 0
    endloop
  endfacet
  facet normal -1 0 0
    outer loop
      vertex 0 80 0
      vertex 0 70.1 14.01
      vertex 0 80 22
    endloop
  endfacet
  facet normal -1 -0 0
    outer loop
      vertex 0 80 22
      vertex 0 70.1 14.01
      vertex 0 67.9027 22
    endloop
  endfacet
  facet normal -1 -0 0
    outer loop
      vertex 0 12.0972 22
      vertex 0 9.9 14.01
      vertex 0 0 22
    endloop
  endfacet
  facet normal 0 -1.22465e-16 -1
    outer loop
      vertex 0 -2.69422e-15 9.79717e-15
      vertex 120 80 0
      vertex 120 -2.69422e-15 9.79717e-15
    endloop
  endfacet
  facet normal -0 -1.22465e-16 -1
    outer loop
      vertex 120 80 0
      vertex 0 -2.69422e-15 9.79717e-15
      vertex 0 80 0
    endloop
  endfacet
  facet normal 1 0 0
    outer loop
      vertex 120 -2.69422e-15 9.79717e-15
      vertex 120 9.9 14.01
      vertex 120 0 22
    endloop
  endfacet
  facet normal 1 -0 0
    outer loop
      vertex 120 0 22
      vertex 120 9.9 14.01
      vertex 120 12.0972 22
    endloop
  endfacet
  facet normal 1 0 0
    outer loop
      vertex 120 80 22
      vertex 120 70.1 14.01
      vertex 120 80 0
    endloop
  endfacet
  facet normal 1 0 -0
    outer loop
      vertex 120 70.1 14.01
      vertex 120 80 22
      vertex 120 67.9027 22
    endloop
  endfacet
  facet normal 1 -0 0
    outer loop
      vertex 120 70.1 3.81
      vertex 120 80 0
      vertex 120 70.1 14.01
    endloop
  endfacet
  facet normal 1 -0 0
    outer loop
      vertex 120 9.9 3.81
      vertex 120 80 0
      vertex 120 70.1 3.81
    endloop
  endfacet
  facet normal 1 0 0
    outer loop
      vertex 120 9.9 3.81
      vertex 120 -2.69422e-15 9.79717e-15
      vertex 120 80 0
    endloop
  endfacet
  facet normal 1 0 0
    outer loop
      vertex 120 9.9 14.01
      vertex 120 -2.69422e-15 9.79717e-15
      vertex 120 9.9 3.81
    endloop
  endfacet
  facet normal 0 -1 1.22465e-16
    outer loop
      vertex 0 -2.69422e-15 9.79717e-15
      vertex 120 0 22
      vertex 0 0 22
    endloop
  endfacet
  facet normal 0 -1 1.22465e-16
    outer loop
      vertex 120 0 22
      vertex 0 -2.69422e-15 9.79717e-15
      vertex 120 -2.69422e-15 9.79717e-15
    endloop
  endfacet
  facet normal -0 0 1
    outer loop
      vertex 0 12.0972 22
      vertex 120 0 22
      vertex 120 12.0972 22
    endloop
  endfacet
  facet normal 0 0 1
    outer loop
      vertex 120 0 22
      vertex 0 12.0972 22
      vertex 0 0 22
    endloop
  endfacet
  facet normal -0 0 1
    outer loop
      vertex 0 80 22
      vertex 120 67.9027 22
      vertex 120 80 22
    endloop
  endfacet
  facet normal 0 0 1
    outer loop
      vertex 120 67.9027 22
      vertex 0 80 22
      vertex 0 67.9027 22
    endloop
  endfacet
  facet normal 0 1 -0
    outer loop
      vertex 120 80 0
      vertex 0 80 22
      vertex 120 80 22
    endloop
  endfacet
  facet normal 0 1 0
    outer loop
      vertex 0 80 22
      vertex 120 80 0
      vertex 0 80 0
    endloop
  endfacet
  facet normal -0 0 1
    outer loop
      vertex 0 70.1 3.81
      vertex 120 9.9 3.81
      vertex 120 70.1 3.81
    endloop
  endfacet
  facet normal 0 0 1
    outer loop
      vertex 120 9.9 3.81
      vertex 0 70.1 3.81
      vertex 0 9.9 3.81
    endloop
  endfacet
  facet normal 0 0.964205 -0.265156
    outer loop
      vertex 120 9.9 14.01
      vertex 0 12.0972 22
      vertex 120 12.0972 22
    endloop
  endfacet
  facet normal 0 0.964205 -0.265156
    outer loop
      vertex 0 12.0972 22
      vertex 120 9.9 14.01
      vertex 0 9.9 14.01
    endloop
  endfacet
  facet normal 0 1 -0
    outer loop
      vertex 120 9.9 3.81
      vertex 0 9.9 14.01
      vertex 120 9.9 14.01
    endloop
  endfacet
  facet normal 0 1 0
    outer loop
      vertex 0 9.9 14.01
      vertex 120 9.9 3.81
      vertex 0 9.9 3.81
    endloop
  endfacet
  facet normal 0 -1 0
    outer loop
      vertex 0 70.1 3.81
      vertex 120 70.1 14.01
      vertex 0 70.1 14.01
    endloop
  endfacet
  facet normal 0 -1 -0
    outer loop
      vertex 120 70.1 14.01
      vertex 0 70.1 3.81
      vertex 120 70.1 3.81
    endloop
  endfacet
  facet normal 0 -0.964205 -0.265156
    outer loop
      vertex 0 70.1 14.01
      vertex 120 67.9027 22
      vertex 0 67.9027 22
    endloop
  endfacet
  facet normal 0 -0.964205 -0.265156
    outer loop
      vertex 120 67.9027 22
      vertex 0 70.1 14.01
      vertex 120 70.1 14.01
    endloop
  endfacet
endsolid OpenSCAD_Model
