solid OpenSCAD_Model
  facet normal 0 1 -0
    outer loop
      vertex 7.5 42 4.65366e-15
      vertex 0 42 3.81
      vertex 7.5 42 3.81
    endloop
  endfacet
  facet normal 0 1 0
    outer loop
      vertex 0 42 3.81
      vertex 7.5 42 4.65366e-15
      vertex 0 42 4.65366e-15
    endloop
  endfacet
  facet normal 0 -1 0
    outer loop
      vertex 0 44 4.40873e-15
      vertex 7.5 44 3.81
      vertex 0 44 3.81
    endloop
  endfacet
  facet normal 0 -1 -0
    outer loop
      vertex 7.5 44 3.81
      vertex 0 44 4.40873e-15
      vertex 7.5 44 4.40873e-15
    endloop
  endfacet
  facet normal -1 0 0
    outer loop
      vertex 7.5 42 4.65366e-15
      vertex 7.5 44 3.81
      vertex 7.5 44 4.40873e-15
    endloop
  endfacet
  facet normal -1 -0 0
    outer loop
      vertex 7.5 44 3.81
      vertex 7.5 42 4.65366e-15
      vertex 7.5 42 3.81
    endloop
  endfacet
  facet normal 0 1 -0
    outer loop
      vertex 45 36 5.38845e-15
      vertex 25 36 3.81
      vertex 45 36 3.81
    endloop
  endfacet
  facet normal 0 1 0
    outer loop
      vertex 25 36 3.81
      vertex 45 36 5.38845e-15
      vertex 25 36 5.38845e-15
    endloop
  endfacet
  facet normal 0 -1 0
    outer loop
      vertex 25 38 5.14352e-15
      vertex 45 38 3.81
      vertex 25 38 3.81
    endloop
  endfacet
  facet normal 0 -1 -0
    outer loop
      vertex 45 38 3.81
      vertex 25 38 5.14352e-15
      vertex 45 38 5.14352e-15
    endloop
  endfacet
  facet normal -1 0 0
    outer loop
      vertex 45 36 5.38845e-15
      vertex 45 38 3.81
      vertex 45 38 5.14352e-15
    endloop
  endfacet
  facet normal -1 -0 0
    outer loop
      vertex 45 38 3.81
      vertex 45 36 5.38845e-15
      vertex 45 36 3.81
    endloop
  endfacet
  facet normal 1 -0 0
    outer loop
      vertex 25 36 3.81
      vertex 25 38 5.14352e-15
      vertex 25 38 3.81
    endloop
  endfacet
  facet normal 1 0 0
    outer loop
      vertex 25 38 5.14352e-15
      vertex 25 36 3.81
      vertex 25 36 5.38845e-15
    endloop
  endfacet
  facet normal 0 1 -0
    outer loop
      vertex 57.5 42 4.65366e-15
      vertex 37.5 42 3.81
      vertex 57.5 42 3.81
    endloop
  endfacet
  facet normal 0 1 0
    outer loop
      vertex 37.5 42 3.81
      vertex 57.5 42 4.65366e-15
      vertex 37.5 42 4.65366e-15
    endloop
  endfacet
  facet normal 0 -1 0
    outer loop
      vertex 37.5 44 4.40873e-15
      vertex 57.5 44 3.81
      vertex 37.5 44 3.81
    endloop
  endfacet
  facet normal 0 -1 -0
    outer loop
      vertex 57.5 44 3.81
      vertex 37.5 44 4.40873e-15
      vertex 57.5 44 4.40873e-15
    endloop
  endfacet
  facet normal 1 -0 0
    outer loop
      vertex 37.5 42 3.81
      vertex 37.5 44 4.40873e-15
      vertex 37.5 44 3.81
    endloop
  endfacet
  facet normal 1 0 0
    outer loop
      vertex 37.5 44 4.40873e-15
      vertex 37.5 42 3.81
      vertex 37.5 42 4.65366e-15
    endloop
  endfacet
  facet normal -1 0 0
    outer loop
      vertex 57.5 42 4.65366e-15
      vertex 57.5 44 3.81
      vertex 57.5 44 4.40873e-15
    endloop
  endfacet
  facet normal -1 -0 0
    outer loop
      vertex 57.5 44 3.81
      vertex 57.5 42 4.65366e-15
      vertex 57.5 42 3.81
    endloop
  endfacet
  facet normal 0 1 -0
    outer loop
      vertex 70 36 5.38845e-15
      vertex 50 36 3.81
      vertex 70 36 3.81
    endloop
  endfacet
  facet normal 0 1 0
    outer loop
      vertex 50 36 3.81
      vertex 70 36 5.38845e-15
      vertex 50 36 5.38845e-15
    endloop
  endfacet
  facet normal 0 -1 0
    outer loop
      vertex 50 38 5.14352e-15
      vertex 70 38 3.81
      vertex 50 38 3.81
    endloop
  endfacet
  facet normal 0 -1 -0
    outer loop
      vertex 70 38 3.81
      vertex 50 38 5.14352e-15
      vertex 70 38 5.14352e-15
    endloop
  endfacet
  facet normal -1 0 0
    outer loop
      vertex 70 36 5.38845e-15
      vertex 70 38 3.81
      vertex 70 38 5.14352e-15
    endloop
  endfacet
  facet normal -1 -0 0
    outer loop
      vertex 70 38 3.81
      vertex 70 36 5.38845e-15
      vertex 70 36 3.81
    endloop
  endfacet
  facet normal 1 -0 0
    outer loop
      vertex 50 36 3.81
      vertex 50 38 5.14352e-15
      vertex 50 38 3.81
    endloop
  endfacet
  facet normal 1 0 0
    outer loop
      vertex 50 38 5.14352e-15
      vertex 50 36 3.81
      vertex 50 36 5.38845e-15
    endloop
  endfacet
  facet normal 0 1 -0
    outer loop
      vertex 82.5 42 4.65366e-15
      vertex 62.5 42 3.81
      vertex 82.5 42 3.81
    endloop
  endfacet
  facet normal 0 1 0
    outer loop
      vertex 62.5 42 3.81
      vertex 82.5 42 4.65366e-15
      vertex 62.5 42 4.65366e-15
    endloop
  endfacet
  facet normal 0 -1 0
    outer loop
      vertex 62.5 44 4.40873e-15
      vertex 82.5 44 3.81
      vertex 62.5 44 3.81
    endloop
  endfacet
  facet normal 0 -1 -0
    outer loop
      vertex 82.5 44 3.81
      vertex 62.5 44 4.40873e-15
      vertex 82.5 44 4.40873e-15
    endloop
  endfacet
  facet normal 1 -0 0
    outer loop
      vertex 62.5 42 3.81
      vertex 62.5 44 4.40873e-15
      vertex 62.5 44 3.81
    endloop
  endfacet
  facet normal 1 0 0
    outer loop
      vertex 62.5 44 4.40873e-15
      vertex 62.5 42 3.81
      vertex 62.5 42 4.65366e-15
    endloop
  endfacet
  facet normal -1 0 0
    outer loop
      vertex 82.5 42 4.65366e-15
      vertex 82.5 44 3.81
      vertex 82.5 44 4.40873e-15
    endloop
  endfacet
  facet normal -1 -0 0
    outer loop
      vertex 82.5 44 3.81
      vertex 82.5 42 4.65366e-15
      vertex 82.5 42 3.81
    endloop
  endfacet
  facet normal 0 1 -0
    outer loop
      vertex 95 36 5.38845e-15
      vertex 75 36 3.81
      vertex 95 36 3.81
    endloop
  endfacet
  facet normal 0 1 0
    outer loop
      vertex 75 36 3.81
      vertex 95 36 5.38845e-15
      vertex 75 36 5.38845e-15
    endloop
  endfacet
  facet normal 0 -1 0
    outer loop
      vertex 75 38 5.14352e-15
      vertex 95 38 3.81
      vertex 75 38 3.81
    endloop
  endfacet
  facet normal 0 -1 -0
    outer loop
      vertex 95 38 3.81
      vertex 75 38 5.14352e-15
      vertex 95 38 5.14352e-15
    endloop
  endfacet
  facet normal -1 0 0
    outer loop
      vertex 95 36 5.38845e-15
      vertex 95 38 3.81
      vertex 95 38 5.14352e-15
    endloop
  endfacet
  facet normal -1 -0 0
    outer loop
      vertex 95 38 3.81
      vertex 95 36 5.38845e-15
      vertex 95 36 3.81
    endloop
  endfacet
  facet normal 1 -0 0
    outer loop
      vertex 75 36 3.81
      vertex 75 38 5.14352e-15
      vertex 75 38 3.81
    endloop
  endfacet
  facet normal 1 0 0
    outer loop
      vertex 75 38 5.14352e-15
      vertex 75 36 3.81
      vertex 75 36 5.38845e-15
    endloop
  endfacet
  facet normal 0 1 -0
    outer loop
      vertex 107.5 42 4.65366e-15
      vertex 87.5 42 3.81
      vertex 107.5 42 3.81
    endloop
  endfacet
  facet normal 0 1 0
    outer loop
      vertex 87.5 42 3.81
      vertex 107.5 42 4.65366e-15
      vertex 87.5 42 4.65366e-15
    endloop
  endfacet
  facet normal 0 -1 0
    outer loop
      vertex 87.5 44 4.40873e-15
      vertex 107.5 44 3.81
      vertex 87.5 44 3.81
    endloop
  endfacet
  facet normal 0 -1 -0
    outer loop
      vertex 107.5 44 3.81
      vertex 87.5 44 4.40873e-15
      vertex 107.5 44 4.40873e-15
    endloop
  endfacet
  facet normal 1 -0 0
    outer loop
      vertex 87.5 42 3.81
      vertex 87.5 44 4.40873e-15
      vertex 87.5 44 3.81
    endloop
  endfacet
  facet normal 1 0 0
    outer loop
      vertex 87.5 44 4.40873e-15
      vertex 87.5 42 3.81
      vertex 87.5 42 4.65366e-15
    endloop
  endfacet
  facet normal -1 0 0
    outer loop
      vertex 107.5 42 4.65366e-15
      vertex 107.5 44 3.81
      vertex 107.5 44 4.40873e-15
    endloop
  endfacet
  facet normal -1 -0 0
    outer loop
      vertex 107.5 44 3.81
      vertex 107.5 42 4.65366e-15
      vertex 107.5 42 3.81
    endloop
  endfacet
  facet normal 0 1 -0
    outer loop
      vertex 120 36 5.38845e-15
      vertex 100 36 3.81
      vertex 120 36 3.81
    endloop
  endfacet
  facet normal 0 1 0
    outer loop
      vertex 100 36 3.81
      vertex 120 36 5.38845e-15
      vertex 100 36 5.38845e-15
    endloop
  endfacet
  facet normal 0 -1 0
    outer loop
      vertex 100 38 5.14352e-15
      vertex 120 38 3.81
      vertex 100 38 3.81
    endloop
  endfacet
  facet normal 0 -1 -0
    outer loop
      vertex 120 38 3.81
      vertex 100 38 5.14352e-15
      vertex 120 38 5.14352e-15
    endloop
  endfacet
  facet normal 1 -0 0
    outer loop
      vertex 100 36 3.81
      vertex 100 38 5.14352e-15
      vertex 100 38 3.81
    endloop
  endfacet
  facet normal 1 0 0
    outer loop
      vertex 100 38 5.14352e-15
      vertex 100 36 3.81
      vertex 100 36 5.38845e-15
    endloop
  endfacet
  facet normal 0 1 -0
    outer loop
      vertex 120 42 4.65366e-15
      vertex 112.5 42 3.81
      vertex 120 42 3.81
    endloop
  endfacet
  facet normal 0 1 0
    outer loop
      vertex 112.5 42 3.81
      vertex 120 42 4.65366e-15
      vertex 112.5 42 4.65366e-15
    endloop
  endfacet
  facet normal 0 -1 0
    outer loop
      vertex 112.5 44 4.40873e-15
      vertex 120 44 3.81
      vertex 112.5 44 3.81
    endloop
  endfacet
  facet normal 0 -1 -0
    outer loop
      vertex 120 44 3.81
      vertex 112.5 44 4.40873e-15
      vertex 120 44 4.40873e-15
    endloop
  endfacet
  facet normal 1 -0 0
    outer loop
      vertex 112.5 42 3.81
      vertex 112.5 44 4.40873e-15
      vertex 112.5 44 3.81
    endloop
  endfacet
  facet normal 1 0 0
    outer loop
      vertex 112.5 44 4.40873e-15
      vertex 112.5 42 3.81
      vertex 112.5 42 4.65366e-15
    endloop
  endfacet
  facet normal 0 1 -0
    outer loop
      vertex 19.99 36 5.38845e-15
      vertex 0 36 3.81
      vertex 19.99 36 3.81
    endloop
  endfacet
  facet normal 0 1 0
    outer loop
      vertex 0 36 3.81
      vertex 19.99 36 5.38845e-15
      vertex 0 36 5.38845e-15
    endloop
  endfacet
  facet normal 0 -1 0
    outer loop
      vertex 0 38 5.14352e-15
      vertex 19.99 38 3.81
      vertex 0 38 3.81
    endloop
  endfacet
  facet normal 0 -1 -0
    outer loop
      vertex 19.99 38 3.81
      vertex 0 38 5.14352e-15
      vertex 19.99 38 5.14352e-15
    endloop
  endfacet
  facet normal -1 0 0
    outer loop
      vertex 19.99 36 5.38845e-15
      vertex 19.99 38 3.81
      vertex 19.99 38 5.14352e-15
    endloop
  endfacet
  facet normal -1 -0 0
    outer loop
      vertex 19.99 38 3.81
      vertex 19.99 36 5.38845e-15
      vertex 19.99 36 3.81
    endloop
  endfacet
  facet normal 0 1 -0
    outer loop
      vertex 32.49 42 4.65366e-15
      vertex 12.49 42 3.81
      vertex 32.49 42 3.81
    endloop
  endfacet
  facet normal 0 1 0
    outer loop
      vertex 12.49 42 3.81
      vertex 32.49 42 4.65366e-15
      vertex 12.49 42 4.65366e-15
    endloop
  endfacet
  facet normal 0 -1 0
    outer loop
      vertex 12.49 44 4.40873e-15
      vertex 32.49 44 3.81
      vertex 12.49 44 3.81
    endloop
  endfacet
  facet normal 0 -1 -0
    outer loop
      vertex 32.49 44 3.81
      vertex 12.49 44 4.40873e-15
      vertex 32.49 44 4.40873e-15
    endloop
  endfacet
  facet normal 1 -0 0
    outer loop
      vertex 12.49 42 3.81
      vertex 12.49 44 4.40873e-15
      vertex 12.49 44 3.81
    endloop
  endfacet
  facet normal 1 0 0
    outer loop
      vertex 12.49 44 4.40873e-15
      vertex 12.49 42 3.81
      vertex 12.49 42 4.65366e-15
    endloop
  endfacet
  facet normal -1 0 0
    outer loop
      vertex 32.49 42 4.65366e-15
      vertex 32.49 44 3.81
      vertex 32.49 44 4.40873e-15
    endloop
  endfacet
  facet normal -1 -0 0
    outer loop
      vertex 32.49 44 3.81
      vertex 32.49 42 4.65366e-15
      vertex 32.49 42 3.81
    endloop
  endfacet
  facet normal -1 0 0
    outer loop
      vertex 0 70.1 16.01
      vertex 0 80 0
      vertex 0 70.1 3.81
    endloop
  endfacet
  facet normal -1 0 0
    outer loop
      vertex 0 44 4.40873e-15
      vertex 0 70.1 3.81
      vertex 0 80 0
    endloop
  endfacet
  facet normal -1 -0 0
    outer loop
      vertex 0 70.1 3.81
      vertex 0 44 4.40873e-15
      vertex 0 44 3.81
    endloop
  endfacet
  facet normal -1 0 0
    outer loop
      vertex 0 80 0
      vertex 0 70.1 16.01
      vertex 0 80 22
    endloop
  endfacet
  facet normal -1 -0 0
    outer loop
      vertex 0 80 22
      vertex 0 70.1 16.01
      vertex 0 68.4028 22
    endloop
  endfacet
  facet normal -1 0 0
    outer loop
      vertex 0 36 5.38845e-15
      vertex 0 9.9 3.81
      vertex 0 36 3.81
    endloop
  endfacet
  facet normal -1 0 0
    outer loop
      vertex 0 -2.69422e-15 9.79717e-15
      vertex 0 9.9 16.01
      vertex 0 9.9 3.81
    endloop
  endfacet
  facet normal -1 -0 0
    outer loop
      vertex 0 9.9 16.01
      vertex 0 -2.69422e-15 9.79717e-15
      vertex 0 0 22
    endloop
  endfacet
  facet normal -1 0 0
    outer loop
      vertex 0 -2.69422e-15 9.79717e-15
      vertex 0 9.9 3.81
      vertex 0 36 5.38845e-15
    endloop
  endfacet
  facet normal -1 -0 0
    outer loop
      vertex 0 11.5972 22
      vertex 0 9.9 16.01
      vertex 0 0 22
    endloop
  endfacet
  facet normal -1 0 0
    outer loop
      vertex 0 38 5.14352e-15
      vertex 0 42 3.81
      vertex 0 42 4.65366e-15
    endloop
  endfacet
  facet normal -1 -0 0
    outer loop
      vertex 0 42 3.81
      vertex 0 38 5.14352e-15
      vertex 0 38 3.81
    endloop
  endfacet
  facet normal 0 -1.22465e-16 -1
    outer loop
      vertex 120 -2.69422e-15 9.79717e-15
      vertex 100 36 5.38845e-15
      vertex 120 36 5.38845e-15
    endloop
  endfacet
  facet normal -0 -1.22465e-16 -1
    outer loop
      vertex 100 36 5.38845e-15
      vertex 95 36 5.38845e-15
      vertex 100 38 5.14352e-15
    endloop
  endfacet
  facet normal 0 -1.22465e-16 -1
    outer loop
      vertex 120 -2.69422e-15 9.79717e-15
      vertex 95 36 5.38845e-15
      vertex 100 36 5.38845e-15
    endloop
  endfacet
  facet normal 0 -1.22465e-16 -1
    outer loop
      vertex 120 -2.69422e-15 9.79717e-15
      vertex 75 36 5.38845e-15
      vertex 95 36 5.38845e-15
    endloop
  endfacet
  facet normal -0 -1.22465e-16 -1
    outer loop
      vertex 75 36 5.38845e-15
      vertex 70 36 5.38845e-15
      vertex 75 38 5.14352e-15
    endloop
  endfacet
  facet normal 0 -1.22465e-16 -1
    outer loop
      vertex 120 -2.69422e-15 9.79717e-15
      vertex 70 36 5.38845e-15
      vertex 75 36 5.38845e-15
    endloop
  endfacet
  facet normal 0 -1.22465e-16 -1
    outer loop
      vertex 120 -2.69422e-15 9.79717e-15
      vertex 50 36 5.38845e-15
      vertex 70 36 5.38845e-15
    endloop
  endfacet
  facet normal -0 -1.22465e-16 -1
    outer loop
      vertex 50 36 5.38845e-15
      vertex 45 36 5.38845e-15
      vertex 50 38 5.14352e-15
    endloop
  endfacet
  facet normal 0 -1.22465e-16 -1
    outer loop
      vertex 0 -2.69422e-15 9.79717e-15
      vertex 50 36 5.38845e-15
      vertex 120 -2.69422e-15 9.79717e-15
    endloop
  endfacet
  facet normal -0 -1.22465e-16 -1
    outer loop
      vertex 50 36 5.38845e-15
      vertex 0 -2.69422e-15 9.79717e-15
      vertex 45 36 5.38845e-15
    endloop
  endfacet
  facet normal -0 -1.22465e-16 -1
    outer loop
      vertex 25 36 5.38845e-15
      vertex 19.99 36 5.38845e-15
      vertex 25 38 5.14352e-15
    endloop
  endfacet
  facet normal -0 -1.22465e-16 -1
    outer loop
      vertex 45 36 5.38845e-15
      vertex 0 -2.69422e-15 9.79717e-15
      vertex 25 36 5.38845e-15
    endloop
  endfacet
  facet normal -0 -1.22465e-16 -1
    outer loop
      vertex 25 36 5.38845e-15
      vertex 0 -2.69422e-15 9.79717e-15
      vertex 19.99 36 5.38845e-15
    endloop
  endfacet
  facet normal -0 -1.22465e-16 -1
    outer loop
      vertex 19.99 36 5.38845e-15
      vertex 0 -2.69422e-15 9.79717e-15
      vertex 0 36 5.38845e-15
    endloop
  endfacet
  facet normal 0 -1.22465e-16 -1
    outer loop
      vertex 120 38 5.14352e-15
      vertex 112.5 42 4.65366e-15
      vertex 120 42 4.65366e-15
    endloop
  endfacet
  facet normal -0 -1.22465e-16 -1
    outer loop
      vertex 112.5 42 4.65366e-15
      vertex 107.5 42 4.65366e-15
      vertex 112.5 44 4.40873e-15
    endloop
  endfacet
  facet normal 0 -1.22465e-16 -1
    outer loop
      vertex 120 38 5.14352e-15
      vertex 107.5 42 4.65366e-15
      vertex 112.5 42 4.65366e-15
    endloop
  endfacet
  facet normal 0 -1.22465e-16 -1
    outer loop
      vertex 100 38 5.14352e-15
      vertex 107.5 42 4.65366e-15
      vertex 120 38 5.14352e-15
    endloop
  endfacet
  facet normal 0 -1.22465e-16 -1
    outer loop
      vertex 95 38 5.14352e-15
      vertex 100 38 5.14352e-15
      vertex 95 36 5.38845e-15
    endloop
  endfacet
  facet normal -0 -1.22465e-16 -1
    outer loop
      vertex 100 38 5.14352e-15
      vertex 95 38 5.14352e-15
      vertex 107.5 42 4.65366e-15
    endloop
  endfacet
  facet normal 0 -1.22465e-16 -1
    outer loop
      vertex 95 38 5.14352e-15
      vertex 87.5 42 4.65366e-15
      vertex 107.5 42 4.65366e-15
    endloop
  endfacet
  facet normal -0 -1.22465e-16 -1
    outer loop
      vertex 87.5 42 4.65366e-15
      vertex 82.5 42 4.65366e-15
      vertex 87.5 44 4.40873e-15
    endloop
  endfacet
  facet normal 0 -1.22465e-16 -1
    outer loop
      vertex 95 38 5.14352e-15
      vertex 82.5 42 4.65366e-15
      vertex 87.5 42 4.65366e-15
    endloop
  endfacet
  facet normal 0 -1.22465e-16 -1
    outer loop
      vertex 75 38 5.14352e-15
      vertex 82.5 42 4.65366e-15
      vertex 95 38 5.14352e-15
    endloop
  endfacet
  facet normal 0 -1.22465e-16 -1
    outer loop
      vertex 70 38 5.14352e-15
      vertex 75 38 5.14352e-15
      vertex 70 36 5.38845e-15
    endloop
  endfacet
  facet normal -0 -1.22465e-16 -1
    outer loop
      vertex 75 38 5.14352e-15
      vertex 70 38 5.14352e-15
      vertex 82.5 42 4.65366e-15
    endloop
  endfacet
  facet normal 0 -1.22465e-16 -1
    outer loop
      vertex 70 38 5.14352e-15
      vertex 62.5 42 4.65366e-15
      vertex 82.5 42 4.65366e-15
    endloop
  endfacet
  facet normal -0 -1.22465e-16 -1
    outer loop
      vertex 62.5 42 4.65366e-15
      vertex 57.5 42 4.65366e-15
      vertex 62.5 44 4.40873e-15
    endloop
  endfacet
  facet normal 0 -1.22465e-16 -1
    outer loop
      vertex 70 38 5.14352e-15
      vertex 57.5 42 4.65366e-15
      vertex 62.5 42 4.65366e-15
    endloop
  endfacet
  facet normal 0 -1.22465e-16 -1
    outer loop
      vertex 50 38 5.14352e-15
      vertex 57.5 42 4.65366e-15
      vertex 70 38 5.14352e-15
    endloop
  endfacet
  facet normal 0 -1.22465e-16 -1
    outer loop
      vertex 45 38 5.14352e-15
      vertex 50 38 5.14352e-15
      vertex 45 36 5.38845e-15
    endloop
  endfacet
  facet normal -0 -1.22465e-16 -1
    outer loop
      vertex 50 38 5.14352e-15
      vertex 45 38 5.14352e-15
      vertex 57.5 42 4.65366e-15
    endloop
  endfacet
  facet normal 0 -1.22465e-16 -1
    outer loop
      vertex 45 38 5.14352e-15
      vertex 37.5 42 4.65366e-15
      vertex 57.5 42 4.65366e-15
    endloop
  endfacet
  facet normal -0 -1.22465e-16 -1
    outer loop
      vertex 37.5 42 4.65366e-15
      vertex 32.49 42 4.65366e-15
      vertex 37.5 44 4.40873e-15
    endloop
  endfacet
  facet normal 0 -1.22465e-16 -1
    outer loop
      vertex 45 38 5.14352e-15
      vertex 32.49 42 4.65366e-15
      vertex 37.5 42 4.65366e-15
    endloop
  endfacet
  facet normal 0 -1.22465e-16 -1
    outer loop
      vertex 25 38 5.14352e-15
      vertex 32.49 42 4.65366e-15
      vertex 45 38 5.14352e-15
    endloop
  endfacet
  facet normal 0 -1.22465e-16 -1
    outer loop
      vertex 19.99 38 5.14352e-15
      vertex 25 38 5.14352e-15
      vertex 19.99 36 5.38845e-15
    endloop
  endfacet
  facet normal -0 -1.22465e-16 -1
    outer loop
      vertex 25 38 5.14352e-15
      vertex 19.99 38 5.14352e-15
      vertex 32.49 42 4.65366e-15
    endloop
  endfacet
  facet normal 0 -1.22465e-16 -1
    outer loop
      vertex 19.99 38 5.14352e-15
      vertex 12.49 42 4.65366e-15
      vertex 32.49 42 4.65366e-15
    endloop
  endfacet
  facet normal -0 -1.22465e-16 -1
    outer loop
      vertex 12.49 42 4.65366e-15
      vertex 7.5 42 4.65366e-15
      vertex 12.49 44 4.40873e-15
    endloop
  endfacet
  facet normal 0 -1.22465e-16 -1
    outer loop
      vertex 19.99 38 5.14352e-15
      vertex 7.5 42 4.65366e-15
      vertex 12.49 42 4.65366e-15
    endloop
  endfacet
  facet normal 0 -1.22465e-16 -1
    outer loop
      vertex 0 38 5.14352e-15
      vertex 7.5 42 4.65366e-15
      vertex 19.99 38 5.14352e-15
    endloop
  endfacet
  facet normal -0 -1.22465e-16 -1
    outer loop
      vertex 7.5 42 4.65366e-15
      vertex 0 38 5.14352e-15
      vertex 0 42 4.65366e-15
    endloop
  endfacet
  facet normal 0 -1.22465e-16 -1
    outer loop
      vertex 112.5 44 4.40873e-15
      vertex 120 80 0
      vertex 120 44 4.40873e-15
    endloop
  endfacet
  facet normal 0 -1.22465e-16 -1
    outer loop
      vertex 107.5 44 4.40873e-15
      vertex 112.5 44 4.40873e-15
      vertex 107.5 42 4.65366e-15
    endloop
  endfacet
  facet normal -0 -1.22465e-16 -1
    outer loop
      vertex 112.5 44 4.40873e-15
      vertex 107.5 44 4.40873e-15
      vertex 120 80 0
    endloop
  endfacet
  facet normal 0 -1.22465e-16 -1
    outer loop
      vertex 87.5 44 4.40873e-15
      vertex 120 80 0
      vertex 107.5 44 4.40873e-15
    endloop
  endfacet
  facet normal 0 -1.22465e-16 -1
    outer loop
      vertex 82.5 44 4.40873e-15
      vertex 87.5 44 4.40873e-15
      vertex 82.5 42 4.65366e-15
    endloop
  endfacet
  facet normal -0 -1.22465e-16 -1
    outer loop
      vertex 87.5 44 4.40873e-15
      vertex 82.5 44 4.40873e-15
      vertex 120 80 0
    endloop
  endfacet
  facet normal 0 -1.22465e-16 -1
    outer loop
      vertex 62.5 44 4.40873e-15
      vertex 120 80 0
      vertex 82.5 44 4.40873e-15
    endloop
  endfacet
  facet normal 0 -1.22465e-16 -1
    outer loop
      vertex 57.5 44 4.40873e-15
      vertex 62.5 44 4.40873e-15
      vertex 57.5 42 4.65366e-15
    endloop
  endfacet
  facet normal -0 -1.22465e-16 -1
    outer loop
      vertex 62.5 44 4.40873e-15
      vertex 57.5 44 4.40873e-15
      vertex 120 80 0
    endloop
  endfacet
  facet normal 0 -1.22465e-16 -1
    outer loop
      vertex 0 80 0
      vertex 57.5 44 4.40873e-15
      vertex 37.5 44 4.40873e-15
    endloop
  endfacet
  facet normal 0 -1.22465e-16 -1
    outer loop
      vertex 32.49 44 4.40873e-15
      vertex 37.5 44 4.40873e-15
      vertex 32.49 42 4.65366e-15
    endloop
  endfacet
  facet normal 0 -1.22465e-16 -1
    outer loop
      vertex 0 80 0
      vertex 37.5 44 4.40873e-15
      vertex 32.49 44 4.40873e-15
    endloop
  endfacet
  facet normal 0 -1.22465e-16 -1
    outer loop
      vertex 0 80 0
      vertex 32.49 44 4.40873e-15
      vertex 12.49 44 4.40873e-15
    endloop
  endfacet
  facet normal 0 -1.22465e-16 -1
    outer loop
      vertex 7.5 44 4.40873e-15
      vertex 12.49 44 4.40873e-15
      vertex 7.5 42 4.65366e-15
    endloop
  endfacet
  facet normal 0 -1.22465e-16 -1
    outer loop
      vertex 0 80 0
      vertex 12.49 44 4.40873e-15
      vertex 7.5 44 4.40873e-15
    endloop
  endfacet
  facet normal 0 -1.22465e-16 -1
    outer loop
      vertex 0 80 0
      vertex 7.5 44 4.40873e-15
      vertex 0 44 4.40873e-15
    endloop
  endfacet
  facet normal 0 -1.22465e-16 -1
    outer loop
      vertex 57.5 44 4.40873e-15
      vertex 0 80 0
      vertex 120 80 0
    endloop
  endfacet
  facet normal 1 0 0
    outer loop
      vertex 120 80 22
      vertex 120 70.1 16.01
      vertex 120 80 0
    endloop
  endfacet
  facet normal 1 0 -0
    outer loop
      vertex 120 70.1 16.01
      vertex 120 80 22
      vertex 120 68.4028 22
    endloop
  endfacet
  facet normal 1 -0 0
    outer loop
      vertex 120 70.1 3.81
      vertex 120 80 0
      vertex 120 70.1 16.01
    endloop
  endfacet
  facet normal 1 0 0
    outer loop
      vertex 120 44 4.40873e-15
      vertex 120 70.1 3.81
      vertex 120 44 3.81
    endloop
  endfacet
  facet normal 1 0 0
    outer loop
      vertex 120 70.1 3.81
      vertex 120 44 4.40873e-15
      vertex 120 80 0
    endloop
  endfacet
  facet normal 1 0 0
    outer loop
      vertex 120 -2.69422e-15 9.79717e-15
      vertex 120 9.9 16.01
      vertex 120 0 22
    endloop
  endfacet
  facet normal 1 -0 0
    outer loop
      vertex 120 0 22
      vertex 120 9.9 16.01
      vertex 120 11.5972 22
    endloop
  endfacet
  facet normal 1 -0 0
    outer loop
      vertex 120 9.9 3.81
      vertex 120 36 5.38845e-15
      vertex 120 36 3.81
    endloop
  endfacet
  facet normal 1 0 0
    outer loop
      vertex 120 9.9 3.81
      vertex 120 -2.69422e-15 9.79717e-15
      vertex 120 36 5.38845e-15
    endloop
  endfacet
  facet normal 1 0 0
    outer loop
      vertex 120 9.9 16.01
      vertex 120 -2.69422e-15 9.79717e-15
      vertex 120 9.9 3.81
    endloop
  endfacet
  facet normal 1 -0 0
    outer loop
      vertex 120 38 3.81
      vertex 120 42 4.65366e-15
      vertex 120 42 3.81
    endloop
  endfacet
  facet normal 1 0 0
    outer loop
      vertex 120 42 4.65366e-15
      vertex 120 38 3.81
      vertex 120 38 5.14352e-15
    endloop
  endfacet
  facet normal 0 -1 1.22465e-16
    outer loop
      vertex 0 -2.69422e-15 9.79717e-15
      vertex 120 0 22
      vertex 0 0 22
    endloop
  endfacet
  facet normal 0 -1 1.22465e-16
    outer loop
      vertex 120 0 22
      vertex 0 -2.69422e-15 9.79717e-15
      vertex 120 -2.69422e-15 9.79717e-15
    endloop
  endfacet
  facet normal -0 0 1
    outer loop
      vertex 0 11.5972 22
      vertex 120 0 22
      vertex 120 11.5972 22
    endloop
  endfacet
  facet normal 0 0 1
    outer loop
      vertex 120 0 22
      vertex 0 11.5972 22
      vertex 0 0 22
    endloop
  endfacet
  facet normal -0 0 1
    outer loop
      vertex 0 80 22
      vertex 120 68.4028 22
      vertex 120 80 22
    endloop
  endfacet
  facet normal 0 0 1
    outer loop
      vertex 120 68.4028 22
      vertex 0 80 22
      vertex 0 68.4028 22
    endloop
  endfacet
  facet normal 0 1 -0
    outer loop
      vertex 120 80 0
      vertex 0 80 22
      vertex 120 80 22
    endloop
  endfacet
  facet normal 0 1 0
    outer loop
      vertex 0 80 22
      vertex 120 80 0
      vertex 0 80 0
    endloop
  endfacet
  facet normal 0 0 1
    outer loop
      vertex 120 70.1 3.81
      vertex 112.5 44 3.81
      vertex 120 44 3.81
    endloop
  endfacet
  facet normal 0 0 1
    outer loop
      vertex 112.5 44 3.81
      vertex 107.5 44 3.81
      vertex 112.5 42 3.81
    endloop
  endfacet
  facet normal 0 0 1
    outer loop
      vertex 120 70.1 3.81
      vertex 107.5 44 3.81
      vertex 112.5 44 3.81
    endloop
  endfacet
  facet normal 0 0 1
    outer loop
      vertex 120 70.1 3.81
      vertex 87.5 44 3.81
      vertex 107.5 44 3.81
    endloop
  endfacet
  facet normal 0 0 1
    outer loop
      vertex 87.5 44 3.81
      vertex 82.5 44 3.81
      vertex 87.5 42 3.81
    endloop
  endfacet
  facet normal 0 0 1
    outer loop
      vertex 120 70.1 3.81
      vertex 82.5 44 3.81
      vertex 87.5 44 3.81
    endloop
  endfacet
  facet normal 0 0 1
    outer loop
      vertex 120 70.1 3.81
      vertex 62.5 44 3.81
      vertex 82.5 44 3.81
    endloop
  endfacet
  facet normal 0 0 1
    outer loop
      vertex 62.5 44 3.81
      vertex 57.5 44 3.81
      vertex 62.5 42 3.81
    endloop
  endfacet
  facet normal 0 0 1
    outer loop
      vertex 120 70.1 3.81
      vertex 57.5 44 3.81
      vertex 62.5 44 3.81
    endloop
  endfacet
  facet normal -0 0 1
    outer loop
      vertex 0 70.1 3.81
      vertex 57.5 44 3.81
      vertex 120 70.1 3.81
    endloop
  endfacet
  facet normal 0 0 1
    outer loop
      vertex 37.5 44 3.81
      vertex 32.49 44 3.81
      vertex 37.5 42 3.81
    endloop
  endfacet
  facet normal 0 0 1
    outer loop
      vertex 57.5 44 3.81
      vertex 0 70.1 3.81
      vertex 37.5 44 3.81
    endloop
  endfacet
  facet normal 0 0 1
    outer loop
      vertex 37.5 44 3.81
      vertex 0 70.1 3.81
      vertex 32.49 44 3.81
    endloop
  endfacet
  facet normal 0 0 1
    outer loop
      vertex 12.49 44 3.81
      vertex 7.5 44 3.81
      vertex 12.49 42 3.81
    endloop
  endfacet
  facet normal 0 0 1
    outer loop
      vertex 32.49 44 3.81
      vertex 0 70.1 3.81
      vertex 12.49 44 3.81
    endloop
  endfacet
  facet normal 0 0 1
    outer loop
      vertex 12.49 44 3.81
      vertex 0 70.1 3.81
      vertex 7.5 44 3.81
    endloop
  endfacet
  facet normal 0 0 1
    outer loop
      vertex 7.5 44 3.81
      vertex 0 70.1 3.81
      vertex 0 44 3.81
    endloop
  endfacet
  facet normal -0 0 1
    outer loop
      vertex 112.5 42 3.81
      vertex 120 38 3.81
      vertex 120 42 3.81
    endloop
  endfacet
  facet normal 0 0 1
    outer loop
      vertex 107.5 42 3.81
      vertex 112.5 42 3.81
      vertex 107.5 44 3.81
    endloop
  endfacet
  facet normal 0 0 1
    outer loop
      vertex 112.5 42 3.81
      vertex 107.5 42 3.81
      vertex 120 38 3.81
    endloop
  endfacet
  facet normal 0 0 1
    outer loop
      vertex 107.5 42 3.81
      vertex 100 38 3.81
      vertex 120 38 3.81
    endloop
  endfacet
  facet normal 0 0 1
    outer loop
      vertex 100 38 3.81
      vertex 95 38 3.81
      vertex 100 36 3.81
    endloop
  endfacet
  facet normal 0 0 1
    outer loop
      vertex 107.5 42 3.81
      vertex 95 38 3.81
      vertex 100 38 3.81
    endloop
  endfacet
  facet normal -0 0 1
    outer loop
      vertex 87.5 42 3.81
      vertex 95 38 3.81
      vertex 107.5 42 3.81
    endloop
  endfacet
  facet normal 0 0 1
    outer loop
      vertex 82.5 42 3.81
      vertex 87.5 42 3.81
      vertex 82.5 44 3.81
    endloop
  endfacet
  facet normal 0 0 1
    outer loop
      vertex 87.5 42 3.81
      vertex 82.5 42 3.81
      vertex 95 38 3.81
    endloop
  endfacet
  facet normal 0 0 1
    outer loop
      vertex 82.5 42 3.81
      vertex 75 38 3.81
      vertex 95 38 3.81
    endloop
  endfacet
  facet normal 0 0 1
    outer loop
      vertex 75 38 3.81
      vertex 70 38 3.81
      vertex 75 36 3.81
    endloop
  endfacet
  facet normal 0 0 1
    outer loop
      vertex 82.5 42 3.81
      vertex 70 38 3.81
      vertex 75 38 3.81
    endloop
  endfacet
  facet normal -0 0 1
    outer loop
      vertex 62.5 42 3.81
      vertex 70 38 3.81
      vertex 82.5 42 3.81
    endloop
  endfacet
  facet normal 0 0 1
    outer loop
      vertex 57.5 42 3.81
      vertex 62.5 42 3.81
      vertex 57.5 44 3.81
    endloop
  endfacet
  facet normal 0 0 1
    outer loop
      vertex 62.5 42 3.81
      vertex 57.5 42 3.81
      vertex 70 38 3.81
    endloop
  endfacet
  facet normal 0 0 1
    outer loop
      vertex 57.5 42 3.81
      vertex 50 38 3.81
      vertex 70 38 3.81
    endloop
  endfacet
  facet normal 0 0 1
    outer loop
      vertex 50 38 3.81
      vertex 45 38 3.81
      vertex 50 36 3.81
    endloop
  endfacet
  facet normal 0 0 1
    outer loop
      vertex 57.5 42 3.81
      vertex 45 38 3.81
      vertex 50 38 3.81
    endloop
  endfacet
  facet normal -0 0 1
    outer loop
      vertex 37.5 42 3.81
      vertex 45 38 3.81
      vertex 57.5 42 3.81
    endloop
  endfacet
  facet normal 0 0 1
    outer loop
      vertex 32.49 42 3.81
      vertex 37.5 42 3.81
      vertex 32.49 44 3.81
    endloop
  endfacet
  facet normal 0 0 1
    outer loop
      vertex 37.5 42 3.81
      vertex 32.49 42 3.81
      vertex 45 38 3.81
    endloop
  endfacet
  facet normal 0 0 1
    outer loop
      vertex 32.49 42 3.81
      vertex 25 38 3.81
      vertex 45 38 3.81
    endloop
  endfacet
  facet normal 0 0 1
    outer loop
      vertex 25 38 3.81
      vertex 19.99 38 3.81
      vertex 25 36 3.81
    endloop
  endfacet
  facet normal 0 0 1
    outer loop
      vertex 32.49 42 3.81
      vertex 19.99 38 3.81
      vertex 25 38 3.81
    endloop
  endfacet
  facet normal -0 0 1
    outer loop
      vertex 12.49 42 3.81
      vertex 19.99 38 3.81
      vertex 32.49 42 3.81
    endloop
  endfacet
  facet normal 0 0 1
    outer loop
      vertex 7.5 42 3.81
      vertex 12.49 42 3.81
      vertex 7.5 44 3.81
    endloop
  endfacet
  facet normal 0 0 1
    outer loop
      vertex 12.49 42 3.81
      vertex 7.5 42 3.81
      vertex 19.99 38 3.81
    endloop
  endfacet
  facet normal 0 0 1
    outer loop
      vertex 0 38 3.81
      vertex 7.5 42 3.81
      vertex 0 42 3.81
    endloop
  endfacet
  facet normal 0 0 1
    outer loop
      vertex 7.5 42 3.81
      vertex 0 38 3.81
      vertex 19.99 38 3.81
    endloop
  endfacet
  facet normal -0 0 1
    outer loop
      vertex 100 36 3.81
      vertex 120 9.9 3.81
      vertex 120 36 3.81
    endloop
  endfacet
  facet normal 0 0 1
    outer loop
      vertex 95 36 3.81
      vertex 100 36 3.81
      vertex 95 38 3.81
    endloop
  endfacet
  facet normal 0 0 1
    outer loop
      vertex 100 36 3.81
      vertex 95 36 3.81
      vertex 120 9.9 3.81
    endloop
  endfacet
  facet normal -0 0 1
    outer loop
      vertex 75 36 3.81
      vertex 120 9.9 3.81
      vertex 95 36 3.81
    endloop
  endfacet
  facet normal 0 0 1
    outer loop
      vertex 70 36 3.81
      vertex 75 36 3.81
      vertex 70 38 3.81
    endloop
  endfacet
  facet normal 0 0 1
    outer loop
      vertex 75 36 3.81
      vertex 70 36 3.81
      vertex 120 9.9 3.81
    endloop
  endfacet
  facet normal -0 0 1
    outer loop
      vertex 50 36 3.81
      vertex 120 9.9 3.81
      vertex 70 36 3.81
    endloop
  endfacet
  facet normal 0 0 1
    outer loop
      vertex 45 36 3.81
      vertex 50 36 3.81
      vertex 45 38 3.81
    endloop
  endfacet
  facet normal 0 0 1
    outer loop
      vertex 0 9.9 3.81
      vertex 50 36 3.81
      vertex 45 36 3.81
    endloop
  endfacet
  facet normal 0 0 1
    outer loop
      vertex 0 9.9 3.81
      vertex 45 36 3.81
      vertex 25 36 3.81
    endloop
  endfacet
  facet normal 0 0 1
    outer loop
      vertex 19.99 36 3.81
      vertex 25 36 3.81
      vertex 19.99 38 3.81
    endloop
  endfacet
  facet normal 0 0 1
    outer loop
      vertex 0 9.9 3.81
      vertex 25 36 3.81
      vertex 19.99 36 3.81
    endloop
  endfacet
  facet normal 0 0 1
    outer loop
      vertex 0 9.9 3.81
      vertex 19.99 36 3.81
      vertex 0 36 3.81
    endloop
  endfacet
  facet normal 0 0 1
    outer loop
      vertex 50 36 3.81
      vertex 0 9.9 3.81
      vertex 120 9.9 3.81
    endloop
  endfacet
  facet normal 0 0.962127 -0.272602
    outer loop
      vertex 120 9.9 16.01
      vertex 0 11.5972 22
      vertex 120 11.5972 22
    endloop
  endfacet
  facet normal 0 0.962127 -0.272602
    outer loop
      vertex 0 11.5972 22
      vertex 120 9.9 16.01
      vertex 0 9.9 16.01
    endloop
  endfacet
  facet normal 0 1 -0
    outer loop
      vertex 120 9.9 3.81
      vertex 0 9.9 16.01
      vertex 120 9.9 16.01
    endloop
  endfacet
  facet normal 0 1 0
    outer loop
      vertex 0 9.9 16.01
      vertex 120 9.9 3.81
      vertex 0 9.9 3.81
    endloop
  endfacet
  facet normal 0 -1 0
    outer loop
      vertex 0 70.1 3.81
      vertex 120 70.1 16.01
      vertex 0 70.1 16.01
    endloop
  endfacet
  facet normal 0 -1 -0
    outer loop
      vertex 120 70.1 16.01
      vertex 0 70.1 3.81
      vertex 120 70.1 3.81
    endloop
  endfacet
  facet normal 0 -0.962127 -0.272602
    outer loop
      vertex 0 70.1 16.01
      vertex 120 68.4028 22
      vertex 0 68.4028 22
    endloop
  endfacet
  facet normal 0 -0.962127 -0.272602
    outer loop
      vertex 120 68.4028 22
      vertex 0 70.1 16.01
      vertex 120 70.1 16.01
    endloop
  endfacet
endsolid OpenSCAD_Model
