solid OpenSCAD_Model
  facet normal -1 0 0
    outer loop
      vertex 0 70.1 16.01
      vertex 0 80 0
      vertex 0 70.1 3.81
    endloop
  endfacet
  facet normal -1 0 0
    outer loop
      vertex 0 80 0
      vertex 0 9.9 3.81
      vertex 0 70.1 3.81
    endloop
  endfacet
  facet normal -1 0 0
    outer loop
      vertex 0 -2.69422e-15 9.79717e-15
      vertex 0 9.9 16.01
      vertex 0 9.9 3.81
    endloop
  endfacet
  facet normal -1 -0 0
    outer loop
      vertex 0 9.9 16.01
      vertex 0 -2.69422e-15 9.79717e-15
      vertex 0 0 22
    endloop
  endfacet
  facet normal -1 0 0
    outer loop
      vertex 0 -2.69422e-15 9.79717e-15
      vertex 0 9.9 3.81
      vertex 0 80 0
    endloop
  endfacet
  facet normal -1 0 0
    outer loop
      vertex 0 80 0
      vertex 0 70.1 16.01
      vertex 0 80 22
    endloop
  endfacet
  facet normal -1 -0 0
    outer loop
      vertex 0 80 22
      vertex 0 70.1 16.01
      vertex 0 68.4028 22
    endloop
  endfacet
  facet normal -1 -0 0
    outer loop
      vertex 0 11.5972 22
      vertex 0 9.9 16.01
      vertex 0 0 22
    endloop
  endfacet
  facet normal 0 -1.22465e-16 -1
    outer loop
      vertex 0 -2.69422e-15 9.79717e-15
      vertex 120 80 0
      vertex 120 -2.69422e-15 9.79717e-15
    endloop
  endfacet
  facet normal -0 -1.22465e-16 -1
    outer loop
      vertex 120 80 0
      vertex 0 -2.69422e-15 9.79717e-15
      vertex 0 80 0
    endloop
  endfacet
  facet normal 1 0 0
    outer loop
      vertex 120 -2.69422e-15 9.79717e-15
      vertex 120 9.9 16.01
      vertex 120 0 22
    endloop
  endfacet
  facet normal 1 -0 0
    outer loop
      vertex 120 0 22
      vertex 120 9.9 16.01
      vertex 120 11.5972 22
    endloop
  endfacet
  facet normal 1 0 0
    outer loop
      vertex 120 80 22
      vertex 120 70.1 16.01
      vertex 120 80 0
    endloop
  endfacet
  facet normal 1 0 -0
    outer loop
      vertex 120 70.1 16.01
      vertex 120 80 22
      vertex 120 68.4028 22
    endloop
  endfacet
  facet normal 1 -0 0
    outer loop
      vertex 120 70.1 3.81
      vertex 120 80 0
      vertex 120 70.1 16.01
    endloop
  endfacet
  facet normal 1 -0 0
    outer loop
      vertex 120 9.9 3.81
      vertex 120 80 0
      vertex 120 70.1 3.81
    endloop
  endfacet
  facet normal 1 0 0
    outer loop
      vertex 120 9.9 3.81
      vertex 120 -2.69422e-15 9.79717e-15
      vertex 120 80 0
    endloop
  endfacet
  facet normal 1 0 0
    outer loop
      vertex 120 9.9 16.01
      vertex 120 -2.69422e-15 9.79717e-15
      vertex 120 9.9 3.81
    endloop
  endfacet
  facet normal 0 -1 1.22465e-16
    outer loop
      vertex 0 -2.69422e-15 9.79717e-15
      vertex 120 0 22
      vertex 0 0 22
    endloop
  endfacet
  facet normal 0 -1 1.22465e-16
    outer loop
      vertex 120 0 22
      vertex 0 -2.69422e-15 9.79717e-15
      vertex 120 -2.69422e-15 9.79717e-15
    endloop
  endfacet
  facet normal -0 0 1
    outer loop
      vertex 0 11.5972 22
      vertex 120 0 22
      vertex 120 11.5972 22
    endloop
  endfacet
  facet normal 0 0 1
    outer loop
      vertex 120 0 22
      vertex 0 11.5972 22
      vertex 0 0 22
    endloop
  endfacet
  facet normal -0 0 1
    outer loop
      vertex 0 80 22
      vertex 120 68.4028 22
      vertex 120 80 22
    endloop
  endfacet
  facet normal 0 0 1
    outer loop
      vertex 120 68.4028 22
      vertex 0 80 22
      vertex 0 68.4028 22
    endloop
  endfacet
  facet normal 0 1 -0
    outer loop
      vertex 120 80 0
      vertex 0 80 22
      vertex 120 80 22
    endloop
  endfacet
  facet normal 0 1 0
    outer loop
      vertex 0 80 22
      vertex 120 80 0
      vertex 0 80 0
    endloop
  endfacet
  facet normal -0 0 1
    outer loop
      vertex 0 70.1 3.81
      vertex 120 9.9 3.81
      vertex 120 70.1 3.81
    endloop
  endfacet
  facet normal 0 0 1
    outer loop
      vertex 120 9.9 3.81
      vertex 0 70.1 3.81
      vertex 0 9.9 3.81
    endloop
  endfacet
  facet normal 0 0.962127 -0.272602
    outer loop
      vertex 120 9.9 16.01
      vertex 0 11.5972 22
      vertex 120 11.5972 22
    endloop
  endfacet
  facet normal 0 0.962127 -0.272602
    outer loop
      vertex 0 11.5972 22
      vertex 120 9.9 16.01
      vertex 0 9.9 16.01
    endloop
  endfacet
  facet normal 0 1 -0
    outer loop
      vertex 120 9.9 3.81
      vertex 0 9.9 16.01
      vertex 120 9.9 16.01
    endloop
  endfacet
  facet normal 0 1 0
    outer loop
      vertex 0 9.9 16.01
      vertex 120 9.9 3.81
      vertex 0 9.9 3.81
    endloop
  endfacet
  facet normal 0 -1 0
    outer loop
      vertex 0 70.1 3.81
      vertex 120 70.1 16.01
      vertex 0 70.1 16.01
    endloop
  endfacet
  facet normal 0 -1 -0
    outer loop
      vertex 120 70.1 16.01
      vertex 0 70.1 3.81
      vertex 120 70.1 3.81
    endloop
  endfacet
  facet normal 0 -0.962127 -0.272602
    outer loop
      vertex 0 70.1 16.01
      vertex 120 68.4028 22
      vertex 0 68.4028 22
    endloop
  endfacet
  facet normal 0 -0.962127 -0.272602
    outer loop
      vertex 120 68.4028 22
      vertex 0 70.1 16.01
      vertex 120 70.1 16.01
    endloop
  endfacet
endsolid OpenSCAD_Model
