solid OpenSCAD_Model
  facet normal -0 0 1
    outer loop
      vertex -1 35 35
      vertex 19 15 35
      vertex 19 35 35
    endloop
  endfacet
  facet normal 0 0 1
    outer loop
      vertex 19 15 35
      vertex -1 35 35
      vertex -1 15 35
    endloop
  endfacet
  facet normal 0 0 -1
    outer loop
      vertex -1 15 15
      vertex 19 35 15
      vertex 19 15 15
    endloop
  endfacet
  facet normal -0 0 -1
    outer loop
      vertex 19 35 15
      vertex -1 15 15
      vertex -1 35 15
    endloop
  endfacet
  facet normal 0 -1 0
    outer loop
      vertex -1 15 15
      vertex 19 15 35
      vertex -1 15 35
    endloop
  endfacet
  facet normal 0 -1 -0
    outer loop
      vertex 19 15 35
      vertex -1 15 15
      vertex 19 15 15
    endloop
  endfacet
  facet normal 1 -0 0
    outer loop
      vertex 19 15 35
      vertex 19 35 15
      vertex 19 35 35
    endloop
  endfacet
  facet normal 1 0 0
    outer loop
      vertex 19 35 15
      vertex 19 15 35
      vertex 19 15 15
    endloop
  endfacet
  facet normal 0 1 -0
    outer loop
      vertex 19 35 15
      vertex -1 35 35
      vertex 19 35 35
    endloop
  endfacet
  facet normal 0 1 0
    outer loop
      vertex -1 35 35
      vertex 19 35 15
      vertex -1 35 15
    endloop
  endfacet
  facet normal -1 0 0
    outer loop
      vertex -1 15 15
      vertex -1 35 35
      vertex -1 35 15
    endloop
  endfacet
  facet normal -1 -0 0
    outer loop
      vertex -1 35 35
      vertex -1 15 15
      vertex -1 15 35
    endloop
  endfacet
endsolid OpenSCAD_Model
