solid OpenSCAD_Model
  facet normal -1 0 0
    outer loop
      vertex 12 0 0
      vertex 12 5 46.3
      vertex 12 5 0
    endloop
  endfacet
  facet normal -1 -0 0
    outer loop
      vertex 12 5 46.3
      vertex 12 0 0
      vertex 12 0 46.3
    endloop
  endfacet
  facet normal 0 0 1
    outer loop
      vertex 52 5 46.3
      vertex 48.8 3.5 46.3
      vertex 52 0 46.3
    endloop
  endfacet
  facet normal 0 0 1
    outer loop
      vertex 52 5 46.3
      vertex 15.2 3.5 46.3
      vertex 48.8 3.5 46.3
    endloop
  endfacet
  facet normal 0 0 1
    outer loop
      vertex 15.2 3.5 46.3
      vertex 12 5 46.3
      vertex 15.2 1.5 46.3
    endloop
  endfacet
  facet normal -0 0 1
    outer loop
      vertex 12 5 46.3
      vertex 15.2 3.5 46.3
      vertex 52 5 46.3
    endloop
  endfacet
  facet normal -0 0 1
    outer loop
      vertex 48.8 1.5 46.3
      vertex 52 0 46.3
      vertex 48.8 3.5 46.3
    endloop
  endfacet
  facet normal 0 0 1
    outer loop
      vertex 45.6 0 46.3
      vertex 48.8 1.5 46.3
      vertex 45.6 1.5 46.3
    endloop
  endfacet
  facet normal 0 0 1
    outer loop
      vertex 48.8 1.5 46.3
      vertex 45.6 0 46.3
      vertex 52 0 46.3
    endloop
  endfacet
  facet normal -0 0 1
    outer loop
      vertex 15.2 1.5 46.3
      vertex 18.4 0 46.3
      vertex 18.4 1.5 46.3
    endloop
  endfacet
  facet normal 0 0 1
    outer loop
      vertex 15.2 1.5 46.3
      vertex 12 0 46.3
      vertex 18.4 0 46.3
    endloop
  endfacet
  facet normal 0 0 1
    outer loop
      vertex 12 0 46.3
      vertex 15.2 1.5 46.3
      vertex 12 5 46.3
    endloop
  endfacet
  facet normal 1 0 0
    outer loop
      vertex 52 5 46.3
      vertex 52 41 70
      vertex 52 5 70
    endloop
  endfacet
  facet normal 1 0 0
    outer loop
      vertex 52 41 70
      vertex 52 5 46.3
      vertex 52 41 0
    endloop
  endfacet
  facet normal 1 0 0
    outer loop
      vertex 52 0 0
      vertex 52 5 46.3
      vertex 52 0 46.3
    endloop
  endfacet
  facet normal 1 0 0
    outer loop
      vertex 52 5 46.3
      vertex 52 0 0
      vertex 52 41 0
    endloop
  endfacet
  facet normal 0 0 -1
    outer loop
      vertex 52 0 0
      vertex 46 9.5 0
      vertex 52 41 0
    endloop
  endfacet
  facet normal 0 0 -1
    outer loop
      vertex 12 0 0
      vertex 46 9.5 0
      vertex 52 0 0
    endloop
  endfacet
  facet normal 0 0 -1
    outer loop
      vertex 12 5 0
      vertex 46 9.5 0
      vertex 12 0 0
    endloop
  endfacet
  facet normal 0 0 -1
    outer loop
      vertex 12 5 0
      vertex 6 9.5 0
      vertex 46 9.5 0
    endloop
  endfacet
  facet normal 0 0 -1
    outer loop
      vertex 0 5 0
      vertex 6 36.5 0
      vertex 6 9.5 0
    endloop
  endfacet
  facet normal 0 0 -1
    outer loop
      vertex 6 36.5 0
      vertex 0 77 0
      vertex 5 68 0
    endloop
  endfacet
  facet normal 0 0 -1
    outer loop
      vertex 0 77 0
      vertex 6 36.5 0
      vertex 0 5 0
    endloop
  endfacet
  facet normal 0 0 -1
    outer loop
      vertex 0 5 0
      vertex 6 9.5 0
      vertex 12 5 0
    endloop
  endfacet
  facet normal 0 0 -1
    outer loop
      vertex 46 36.5 0
      vertex 52 41 0
      vertex 46 9.5 0
    endloop
  endfacet
  facet normal 0 0 -1
    outer loop
      vertex 46 36.5 0
      vertex 20 41 0
      vertex 52 41 0
    endloop
  endfacet
  facet normal 0 0 -1
    outer loop
      vertex 20 41 0
      vertex 15 68 0
      vertex 20 77 0
    endloop
  endfacet
  facet normal 0 0 -1
    outer loop
      vertex 6 36.5 0
      vertex 20 41 0
      vertex 46 36.5 0
    endloop
  endfacet
  facet normal 0 0 -1
    outer loop
      vertex 5 68 0
      vertex 20 41 0
      vertex 6 36.5 0
    endloop
  endfacet
  facet normal 0 0 -1
    outer loop
      vertex 20 41 0
      vertex 5 68 0
      vertex 15 68 0
    endloop
  endfacet
  facet normal 0 0 -1
    outer loop
      vertex 15 73 0
      vertex 20 77 0
      vertex 15 68 0
    endloop
  endfacet
  facet normal 0 0 -1
    outer loop
      vertex 5 73 0
      vertex 20 77 0
      vertex 15 73 0
    endloop
  endfacet
  facet normal 0 0 -1
    outer loop
      vertex 5 73 0
      vertex 0 77 0
      vertex 20 77 0
    endloop
  endfacet
  facet normal 0 0 -1
    outer loop
      vertex 5 68 0
      vertex 0 77 0
      vertex 5 73 0
    endloop
  endfacet
  facet normal 0 -1 0
    outer loop
      vertex 12 0 46.3
      vertex 18.4 0 3
      vertex 18.4 0 46.3
    endloop
  endfacet
  facet normal 0 -1 -0
    outer loop
      vertex 18.4 0 3
      vertex 12 0 0
      vertex 45.6 0 3
    endloop
  endfacet
  facet normal 0 -1 0
    outer loop
      vertex 12 0 0
      vertex 18.4 0 3
      vertex 12 0 46.3
    endloop
  endfacet
  facet normal 0 -1 0
    outer loop
      vertex 45.6 0 3
      vertex 52 0 46.3
      vertex 45.6 0 46.3
    endloop
  endfacet
  facet normal 0 -1 0
    outer loop
      vertex 45.6 0 3
      vertex 52 0 0
      vertex 52 0 46.3
    endloop
  endfacet
  facet normal 0 -1 0
    outer loop
      vertex 52 0 0
      vertex 45.6 0 3
      vertex 12 0 0
    endloop
  endfacet
  facet normal 0 -1 0
    outer loop
      vertex 0 5 70
      vertex 12 5 46.3
      vertex 52 5 70
    endloop
  endfacet
  facet normal 0 -1 0
    outer loop
      vertex 0 5 0
      vertex 12 5 46.3
      vertex 0 5 70
    endloop
  endfacet
  facet normal 0 -1 -0
    outer loop
      vertex 12 5 46.3
      vertex 0 5 0
      vertex 12 5 0
    endloop
  endfacet
  facet normal 0 -1 -0
    outer loop
      vertex 52 5 70
      vertex 12 5 46.3
      vertex 52 5 46.3
    endloop
  endfacet
  facet normal 1 -0 0
    outer loop
      vertex 15.2 1.5 46.3
      vertex 15.2 3.5 3
      vertex 15.2 3.5 46.3
    endloop
  endfacet
  facet normal 1 0 0
    outer loop
      vertex 15.2 3.5 3
      vertex 15.2 1.5 46.3
      vertex 15.2 1.5 3
    endloop
  endfacet
  facet normal -1 0 0
    outer loop
      vertex 48.8 1.5 3
      vertex 48.8 3.5 46.3
      vertex 48.8 3.5 3
    endloop
  endfacet
  facet normal -1 -0 0
    outer loop
      vertex 48.8 3.5 46.3
      vertex 48.8 1.5 3
      vertex 48.8 1.5 46.3
    endloop
  endfacet
  facet normal 0 -1 0
    outer loop
      vertex 15.2 3.5 3
      vertex 48.8 3.5 46.3
      vertex 15.2 3.5 46.3
    endloop
  endfacet
  facet normal 0 -1 -0
    outer loop
      vertex 48.8 3.5 46.3
      vertex 15.2 3.5 3
      vertex 48.8 3.5 3
    endloop
  endfacet
  facet normal 0 0 1
    outer loop
      vertex 48.8 3.5 3
      vertex 45.6 1.5 3
      vertex 48.8 1.5 3
    endloop
  endfacet
  facet normal 0 0 1
    outer loop
      vertex 45.6 1.5 3
      vertex 18.4 1.5 3
      vertex 45.6 0 3
    endloop
  endfacet
  facet normal 0 0 1
    outer loop
      vertex 48.8 3.5 3
      vertex 18.4 1.5 3
      vertex 45.6 1.5 3
    endloop
  endfacet
  facet normal -0 0 1
    outer loop
      vertex 15.2 3.5 3
      vertex 18.4 1.5 3
      vertex 48.8 3.5 3
    endloop
  endfacet
  facet normal 0 0 1
    outer loop
      vertex 18.4 1.5 3
      vertex 15.2 3.5 3
      vertex 15.2 1.5 3
    endloop
  endfacet
  facet normal 0 0 1
    outer loop
      vertex 45.6 0 3
      vertex 18.4 1.5 3
      vertex 18.4 0 3
    endloop
  endfacet
  facet normal 0 1 -0
    outer loop
      vertex 18.4 1.5 3
      vertex 15.2 1.5 46.3
      vertex 18.4 1.5 46.3
    endloop
  endfacet
  facet normal 0 1 0
    outer loop
      vertex 15.2 1.5 46.3
      vertex 18.4 1.5 3
      vertex 15.2 1.5 3
    endloop
  endfacet
  facet normal 0 1 -0
    outer loop
      vertex 48.8 1.5 3
      vertex 45.6 1.5 46.3
      vertex 48.8 1.5 46.3
    endloop
  endfacet
  facet normal 0 1 0
    outer loop
      vertex 45.6 1.5 46.3
      vertex 48.8 1.5 3
      vertex 45.6 1.5 3
    endloop
  endfacet
  facet normal 1 -0 0
    outer loop
      vertex 18.4 0 46.3
      vertex 18.4 1.5 3
      vertex 18.4 1.5 46.3
    endloop
  endfacet
  facet normal 1 0 0
    outer loop
      vertex 18.4 1.5 3
      vertex 18.4 0 46.3
      vertex 18.4 0 3
    endloop
  endfacet
  facet normal -1 0 0
    outer loop
      vertex 45.6 0 3
      vertex 45.6 1.5 46.3
      vertex 45.6 1.5 3
    endloop
  endfacet
  facet normal -1 -0 0
    outer loop
      vertex 45.6 1.5 46.3
      vertex 45.6 0 3
      vertex 45.6 0 46.3
    endloop
  endfacet
  facet normal -1 0 0
    outer loop
      vertex 0 5 0
      vertex 0 77 70
      vertex 0 77 0
    endloop
  endfacet
  facet normal -1 -0 0
    outer loop
      vertex 0 77 70
      vertex 0 5 0
      vertex 0 5 70
    endloop
  endfacet
  facet normal 0 0 1
    outer loop
      vertex 15 68 70
      vertex 20 77 70
      vertex 15 73 70
    endloop
  endfacet
  facet normal 0 0 1
    outer loop
      vertex 20 77 70
      vertex 5 73 70
      vertex 15 73 70
    endloop
  endfacet
  facet normal 0 0 1
    outer loop
      vertex 0 77 70
      vertex 5 68 70
      vertex 5 73 70
    endloop
  endfacet
  facet normal 0 0 1
    outer loop
      vertex 0 5 70
      vertex 2.85 38.2 70
      vertex 0 77 70
    endloop
  endfacet
  facet normal 0 0 1
    outer loop
      vertex 5 68 70
      vertex 0 77 70
      vertex 2.85 38.2 70
    endloop
  endfacet
  facet normal -0 0 1
    outer loop
      vertex 0 77 70
      vertex 5 73 70
      vertex 20 77 70
    endloop
  endfacet
  facet normal 0 0 1
    outer loop
      vertex 52 41 70
      vertex 49.15 38.2 70
      vertex 52 5 70
    endloop
  endfacet
  facet normal -0 0 1
    outer loop
      vertex 20 41 70
      vertex 49.15 38.2 70
      vertex 52 41 70
    endloop
  endfacet
  facet normal 0 0 1
    outer loop
      vertex 20 77 70
      vertex 15 68 70
      vertex 20 41 70
    endloop
  endfacet
  facet normal -0 0 1
    outer loop
      vertex 5 68 70
      vertex 20 41 70
      vertex 15 68 70
    endloop
  endfacet
  facet normal 0 0 1
    outer loop
      vertex 20 41 70
      vertex 2.85 38.2 70
      vertex 49.15 38.2 70
    endloop
  endfacet
  facet normal 0 0 1
    outer loop
      vertex 2.85 38.2 70
      vertex 20 41 70
      vertex 5 68 70
    endloop
  endfacet
  facet normal -0 0 1
    outer loop
      vertex 49.15 7.8 70
      vertex 52 5 70
      vertex 49.15 38.2 70
    endloop
  endfacet
  facet normal -0 0 1
    outer loop
      vertex 2.85 7.8 70
      vertex 52 5 70
      vertex 49.15 7.8 70
    endloop
  endfacet
  facet normal 0 0 1
    outer loop
      vertex 2.85 7.8 70
      vertex 0 5 70
      vertex 52 5 70
    endloop
  endfacet
  facet normal 0 0 1
    outer loop
      vertex 2.85 38.2 70
      vertex 0 5 70
      vertex 2.85 7.8 70
    endloop
  endfacet
  facet normal 0 1 -0
    outer loop
      vertex 52 41 0
      vertex 20 41 70
      vertex 52 41 70
    endloop
  endfacet
  facet normal 0 1 0
    outer loop
      vertex 20 41 70
      vertex 52 41 0
      vertex 20 41 0
    endloop
  endfacet
  facet normal 1 -0 0
    outer loop
      vertex 2.85 7.8 70
      vertex 2.85 38.2 2
      vertex 2.85 38.2 70
    endloop
  endfacet
  facet normal 1 0 0
    outer loop
      vertex 2.85 38.2 2
      vertex 2.85 7.8 70
      vertex 2.85 7.8 2
    endloop
  endfacet
  facet normal -1 0 0
    outer loop
      vertex 49.15 7.8 2
      vertex 49.15 38.2 70
      vertex 49.15 38.2 2
    endloop
  endfacet
  facet normal -1 -0 0
    outer loop
      vertex 49.15 38.2 70
      vertex 49.15 7.8 2
      vertex 49.15 7.8 70
    endloop
  endfacet
  facet normal 0 -1 0
    outer loop
      vertex 2.85 38.2 2
      vertex 49.15 38.2 70
      vertex 2.85 38.2 70
    endloop
  endfacet
  facet normal 0 -1 -0
    outer loop
      vertex 49.15 38.2 70
      vertex 2.85 38.2 2
      vertex 49.15 38.2 2
    endloop
  endfacet
  facet normal 0 0 1
    outer loop
      vertex 49.15 38.2 2
      vertex 46 36.5 2
      vertex 49.15 7.8 2
    endloop
  endfacet
  facet normal 0 0 1
    outer loop
      vertex 49.15 38.2 2
      vertex 6 36.5 2
      vertex 46 36.5 2
    endloop
  endfacet
  facet normal 0 0 1
    outer loop
      vertex 6 36.5 2
      vertex 2.85 38.2 2
      vertex 6 9.5 2
    endloop
  endfacet
  facet normal -0 0 1
    outer loop
      vertex 2.85 38.2 2
      vertex 6 36.5 2
      vertex 49.15 38.2 2
    endloop
  endfacet
  facet normal -0 0 1
    outer loop
      vertex 46 9.5 2
      vertex 49.15 7.8 2
      vertex 46 36.5 2
    endloop
  endfacet
  facet normal -0 0 1
    outer loop
      vertex 6 9.5 2
      vertex 49.15 7.8 2
      vertex 46 9.5 2
    endloop
  endfacet
  facet normal 0 0 1
    outer loop
      vertex 6 9.5 2
      vertex 2.85 7.8 2
      vertex 49.15 7.8 2
    endloop
  endfacet
  facet normal 0 0 1
    outer loop
      vertex 2.85 7.8 2
      vertex 6 9.5 2
      vertex 2.85 38.2 2
    endloop
  endfacet
  facet normal 0 1 -0
    outer loop
      vertex 49.15 7.8 2
      vertex 2.85 7.8 70
      vertex 49.15 7.8 70
    endloop
  endfacet
  facet normal 0 1 0
    outer loop
      vertex 2.85 7.8 70
      vertex 49.15 7.8 2
      vertex 2.85 7.8 2
    endloop
  endfacet
  facet normal 1 -0 0
    outer loop
      vertex 6 9.5 2
      vertex 6 36.5 0
      vertex 6 36.5 2
    endloop
  endfacet
  facet normal 1 0 0
    outer loop
      vertex 6 36.5 0
      vertex 6 9.5 2
      vertex 6 9.5 0
    endloop
  endfacet
  facet normal -1 0 0
    outer loop
      vertex 46 9.5 0
      vertex 46 36.5 2
      vertex 46 36.5 0
    endloop
  endfacet
  facet normal -1 -0 0
    outer loop
      vertex 46 36.5 2
      vertex 46 9.5 0
      vertex 46 9.5 2
    endloop
  endfacet
  facet normal 0 -1 0
    outer loop
      vertex 6 36.5 0
      vertex 46 36.5 2
      vertex 6 36.5 2
    endloop
  endfacet
  facet normal 0 -1 -0
    outer loop
      vertex 46 36.5 2
      vertex 6 36.5 0
      vertex 46 36.5 0
    endloop
  endfacet
  facet normal 0 1 -0
    outer loop
      vertex 46 9.5 0
      vertex 6 9.5 2
      vertex 46 9.5 2
    endloop
  endfacet
  facet normal 0 1 0
    outer loop
      vertex 6 9.5 2
      vertex 46 9.5 0
      vertex 6 9.5 0
    endloop
  endfacet
  facet normal 1 -0 0
    outer loop
      vertex 20 41 70
      vertex 20 77 0
      vertex 20 77 70
    endloop
  endfacet
  facet normal 1 0 0
    outer loop
      vertex 20 77 0
      vertex 20 41 70
      vertex 20 41 0
    endloop
  endfacet
  facet normal 0 1 -0
    outer loop
      vertex 20 77 0
      vertex 0 77 70
      vertex 20 77 70
    endloop
  endfacet
  facet normal 0 1 0
    outer loop
      vertex 0 77 70
      vertex 20 77 0
      vertex 0 77 0
    endloop
  endfacet
  facet normal 1 -0 0
    outer loop
      vertex 5 68 70
      vertex 5 73 0
      vertex 5 73 70
    endloop
  endfacet
  facet normal 1 0 0
    outer loop
      vertex 5 73 0
      vertex 5 68 70
      vertex 5 68 0
    endloop
  endfacet
  facet normal -1 0 0
    outer loop
      vertex 15 68 0
      vertex 15 73 70
      vertex 15 73 0
    endloop
  endfacet
  facet normal -1 -0 0
    outer loop
      vertex 15 73 70
      vertex 15 68 0
      vertex 15 68 70
    endloop
  endfacet
  facet normal 0 1 -0
    outer loop
      vertex 15 68 0
      vertex 5 68 70
      vertex 15 68 70
    endloop
  endfacet
  facet normal 0 1 0
    outer loop
      vertex 5 68 70
      vertex 15 68 0
      vertex 5 68 0
    endloop
  endfacet
  facet normal 0 -1 0
    outer loop
      vertex 5 73 0
      vertex 15 73 70
      vertex 5 73 70
    endloop
  endfacet
  facet normal 0 -1 -0
    outer loop
      vertex 15 73 70
      vertex 5 73 0
      vertex 15 73 0
    endloop
  endfacet
endsolid OpenSCAD_Model
